<svg xmlns="http://www.w3.org/2000/svg" xmlns:xlink="http://www.w3.org/1999/xlink" version="1.1" x="0px" y="0px" viewBox="0 0 32 40" style="enable-background:new 0 0 32 32;" xml:space="preserve"><path d="M27.7,26.3l-6.8-6.8c1.3-1.6,2.1-3.7,2.1-6C23,8.3,18.7,4,13.5,4S4,8.3,4,13.5S8.3,23,13.5,23c2.3,0,4.3-0.8,6-2.1l6.8,6.8  c0.2,0.2,0.5,0.3,0.7,0.3s0.5-0.1,0.7-0.3C28.1,27.3,28.1,26.7,27.7,26.3z M13.5,21C9.4,21,6,17.6,6,13.5S9.4,6,13.5,6  S21,9.4,21,13.5S17.6,21,13.5,21z"/><text x="0" y="47" fill="#000000" font-size="5px" font-weight="bold" font-family="'Helvetica Neue', Helvetica, Arial-Unicode, Arial, Sans-serif">Created by Suryaman</text><text x="0" y="52" fill="#000000" font-size="5px" font-weight="bold" font-family="'Helvetica Neue', Helvetica, Arial-Unicode, Arial, Sans-serif">from the Noun Project</text></svg>