<svg class="svgs" id="Capa_1" enable-background="new 0 0 511.942 511.942" height="512" viewBox="0 0 511.942 511.942" width="512" xmlns="http://www.w3.org/2000/svg"><g><path d="m60.189 216.769-.308-.318c-3.666-3.796-10.003-2.519-11.965 2.381-3.01 7.52-3.011 17.561 5.266 27.311 6.992 8.237 1.968 14.936.319 16.73-2.875 2.981-2.79 7.729.191 10.605 2.984 2.878 7.731 2.788 10.605-.191 5.813-6.028 13.362-21.487.319-36.852-4.14-4.876-4.095-8.925-2.976-11.785 1.064-2.713.573-5.785-1.451-7.881z"/><path d="m14.11 216.769-.307-.318c-3.667-3.795-10.003-2.518-11.964 2.381-3.01 7.52-3.011 17.561 5.266 27.312 6.993 8.236 1.968 14.935.32 16.73-2.876 2.981-2.791 7.729.19 10.605 2.979 2.874 7.728 2.792 10.604-.191 5.814-6.027 13.364-21.487.32-36.852-4.14-4.876-4.095-8.926-2.976-11.786 1.064-2.714.572-5.785-1.453-7.881z"/><path d="m27.171 292.304-15.584 20.485c-4.71 6.191-3.79 14.858 2.02 19.669.047.04.119.1.185.153l117.939 95.93c9.247 45.37 49.458 79.616 97.52 79.616h183.172c54.876 0 99.521-44.645 99.521-99.52v-26.761c0-4.142-3.357-7.5-7.5-7.5s-7.5 3.358-7.5 7.5v26.761c0 46.604-37.916 84.52-84.521 84.52h-183.173c-47.171 0-84.521-38.55-84.521-84.52 0-14.193 0-80.429 0-90.599 0-31.728 18.078-60.895 46.361-75.323 2.779 1.197 5.762 1.771 8.607 1.771h242.276c2.87 0 5.851-.585 8.607-1.771 28.284 14.428 46.362 43.595 46.362 75.323v28.838c0 4.142 3.357 7.5 7.5 7.5s7.5-3.358 7.5-7.5v-28.838c0-22.004-7.381-42.955-20.24-59.933v-64.538c0-58.402-29.97-113.303-78.603-144.763 2.332-11.257-3.26-23.18-14.36-28.24-49.059-22.361-106.701-22.382-155.808 0-10.977 5.003-16.682 16.889-14.354 28.236-48.636 31.457-78.607 86.36-78.607 144.767v64.537c-12.654 16.707-19.99 37.263-20.221 58.884l-77.936-31.461c-8.777-3.543-18.911-.757-24.642 6.777zm421.638-69.654c0 3.821-3.157 6.835-6.835 6.835h-242.277c-3.64 0-6.835-2.976-6.835-6.835v-6.353c0-3.769 3.066-6.835 6.835-6.835h242.276c3.769 0 6.835 3.066 6.835 6.835v6.353zm-30.847-28.188h-194.252c44.367-72.285 149.691-72.602 194.252 0zm-112.522-70.735c0-8.49 6.907-15.396 15.396-15.396s15.396 6.907 15.396 15.396c0 .731-.051 1.454-.152 2.167-3.577-.429-9.484-.906-15.244-.906-5.204 0-10.967.392-15.244.906-.102-.713-.152-1.436-.152-2.167zm-140.47 69.84c0-52.974 26.997-102.777 70.864-131.58 7.296 7.016 18.424 9.282 28.181 4.838 12.686-5.781 26.21-9.548 40.199-11.197 4.113-.484 7.056-4.212 6.57-8.326-.484-4.113-4.217-7.055-8.326-6.57-15.535 1.831-30.562 6.018-44.662 12.443-5.228 2.382-11.423.066-13.804-5.159-2.383-5.228-.067-11.42 5.16-13.802 45.109-20.56 98.218-20.579 143.366 0 5.24 2.387 7.549 8.562 5.16 13.802-2.384 5.228-8.571 7.542-13.802 5.16-14.103-6.427-29.129-10.614-44.663-12.444-4.107-.485-7.842 2.456-8.326 6.57-.485 4.114 2.457 7.842 6.57 8.326 13.988 1.648 27.513 5.416 40.198 11.197 9.701 4.421 20.831 2.231 28.181-4.837 43.867 28.805 70.865 78.607 70.865 131.579v48.677c-4.597-3.908-9.576-7.421-14.894-10.48 1.28-2.776 2-5.861 2-9.113v-6.353c0-12.04-9.795-21.835-21.835-21.835h-6.789c-10.333-19.874-25.653-36.727-44.549-48.935-12.278-7.933-25.725-13.638-39.793-16.997.252-1.577.39-3.177.39-4.803 0-16.761-13.636-30.396-30.396-30.396s-30.396 13.636-30.396 30.396c0 1.625.138 3.226.39 4.803-14.069 3.359-27.516 9.064-39.793 16.997-18.896 12.208-34.217 29.062-44.549 48.935h-6.79c-12.04 0-21.835 9.795-21.835 21.835v6.353c0 3.252.72 6.337 2 9.112-5.317 3.059-10.295 6.572-14.893 10.479v-48.675zm-118.771 105.869 83.53 33.72v74.422l-105.885-86.126 15.265-20.066c1.649-2.166 4.565-2.969 7.09-1.95z"/></g></svg>