<svg class="svgs" height="511pt" viewBox="-31 0 511 511.99987" width="511pt" xmlns="http://www.w3.org/2000/svg"><path d="m85.796875 443.761719h255.886719c4.710937 0 8.527344-3.816407 8.527344-8.527344v-102.355469c0-4.710937-3.816407-8.53125-8.527344-8.53125h-255.886719c-4.710937 0-8.53125 3.820313-8.53125 8.53125v102.355469c0 4.710937 3.820313 8.527344 8.53125 8.527344zm8.527344-102.355469h238.828125v85.296875h-238.828125zm0 0"/><path d="m213.738281 358.46875c-14.132812 0-25.585937 11.453125-25.585937 25.585938 0 14.132812 11.453125 25.589843 25.585937 25.589843 14.132813 0 25.589844-11.457031 25.589844-25.589843 0-14.132813-11.457031-25.585938-25.589844-25.585938zm0 34.117188c-4.710937 0-8.527343-3.820313-8.527343-8.53125 0-4.710938 3.816406-8.527344 8.527343-8.527344 4.710938 0 8.53125 3.816406 8.53125 8.527344 0 4.710937-3.820312 8.53125-8.53125 8.53125zm0 0"/><path d="m9.03125 512h409.417969c4.710937 0 8.53125-3.820312 8.53125-8.53125v-34.117188c0-4.710937-3.820313-8.527343-8.53125-8.527343h-34.117188v-153.535157h34.117188c4.710937 0 8.53125-3.816406 8.53125-8.527343v-34.121094c0-4.710937-3.820313-8.527344-8.53125-8.527344h-100.871094c36.0625-21.503906 58.171875-60.371093 58.222656-102.355469v-33.050781c0-4.710937-3.816406-8.53125-8.527343-8.53125h-127.945313v-4.605469l27.773437-15.628906 125.761719 1.578125v.53125c0 14.132813 11.453125 25.589844 25.585938 25.589844 14.132812 0 25.589843-11.457031 25.589843-25.589844v-8.078125l5.65625-50.84375c1.933594-17.257812-10.484374-32.816406-27.738281-34.75-17.253906-1.9375-32.8125 10.480469-34.75 27.734375-.261719 2.332031-.261719 4.683594 0 7.015625l4.597657 41.316406-129.070313-1.613281-23.40625 13.160157v-11.222657c18.84375-14.132812 22.664063-40.863281 8.53125-59.707031s-40.867187-22.664062-59.707031-8.53125c-18.84375 14.132812-22.664063 40.863281-8.53125 59.707031 2.425781 3.234375 5.296875 6.105469 8.53125 8.53125v35.40625h-127.945313c-4.710937 0-8.53125 3.816407-8.53125 8.527344v33.054687c.054688 41.984376 22.164063 80.851563 58.222657 102.355469h-100.867188c-4.710938 0-8.53125 3.816407-8.53125 8.527344v34.117187c0 4.710938 3.820312 8.53125 8.53125 8.53125h34.117188v153.53125h-34.117188c-4.710938 0-8.53125 3.820313-8.53125 8.53125v34.117188c0 4.710938 3.820312 8.53125 8.53125 8.53125zm409.417969-409.421875c-4.710938 0-8.527344-3.816406-8.527344-8.527344h17.058594c0 4.710938-3.820313 8.527344-8.53125 8.527344zm-10.703125-80.507813c5.554687-5.914062 14.847656-6.203124 20.761718-.648437.222657.207031.4375.425781.644532.648437 2.753906 3.03125 4.0625 7.105469 3.585937 11.171876l-4.855469 43.65625-18.894531-.242188-4.824219-43.414062c-.480468-4.066407.828126-8.144532 3.582032-11.171876zm-194.007813-4.785156c14.132813 0 25.589844 11.453125 25.589844 25.585938 0 14.132812-11.457031 25.589844-25.589844 25.589844-14.132812 0-25.585937-11.457032-25.585937-25.589844 0-14.132813 11.453125-25.585938 25.585937-25.585938zm8.53125 67.382813v26.441406h-17.058593v-26.441406c5.628906 1.148437 11.429687 1.148437 17.058593 0zm-153.53125 44.566406h290.003907v15.992187h-290.003907zm.433594 33.050781h289.152344c-4.472657 52.996094-48.753907 93.753906-101.9375 93.828125h-85.296875c-53.175782-.082031-97.445313-40.839843-101.917969-93.828125zm-51.613281 127.945313v-17.058594h392.363281v17.058594zm349.714844 17.058593v153.535157h-307.066407v-153.535157zm-349.714844 170.59375h392.363281v17.058594h-392.363281zm0 0"/></svg>